<svg width="33" height="28" viewBox="0 0 33 28" fill="none" xmlns="http://www.w3.org/2000/svg">
<path d="M29.8146 10.4902C29.8146 10.0273 29.4995 9.78125 28.9208 9.78125H28.6401V11.2402H28.9094C29.4995 11.2402 29.8146 10.9824 29.8146 10.4902ZM30.25 0.875H2.75C1.23177 0.875 0 2.13477 0 3.6875V24.3125C0 25.8652 1.23177 27.125 2.75 27.125H30.25C31.7682 27.125 33 25.8652 33 24.3125V3.6875C33 2.13477 31.7682 0.875 30.25 0.875ZM27.7234 9.01367C29.0182 9.01367 30.7542 8.77344 30.7542 10.4434C30.7542 11.1816 30.376 11.6562 29.6828 11.8027L31.1609 13.8184H30.038L28.7661 11.8965H28.6401V13.8184H27.7234V9.01367ZM24.5208 9.01953H27.1161V9.83984H25.4375V10.9062H27.0589V11.7148H25.4375V13.0156H27.1161V13.8242H24.5208V9.01953ZM20.5849 9.01953L21.8396 12.2539L23.1115 9.01953H24.1141L22.0802 13.9531H21.5875L19.5823 9.01953H20.5849ZM17.3823 8.84375C18.7974 8.84375 19.9375 10.0156 19.9375 11.457C19.9375 12.9043 18.7917 14.0703 17.3823 14.0703C15.9672 14.0703 14.8271 12.8984 14.8271 11.457C14.8271 10.0098 15.9729 8.84375 17.3823 8.84375ZM14.5578 9.20117V10.3145C13.4063 9.13672 11.8766 10.0391 11.8766 11.4277C11.8766 12.8926 13.4521 13.6836 14.5578 12.5527V13.666C12.8563 14.5039 10.9313 13.332 10.9313 11.4277C10.9313 9.59961 12.8276 8.32227 14.5578 9.20117ZM8.98906 13.0859C9.64219 13.0859 10.2724 12.1895 8.8 11.6562C7.94063 11.334 7.64271 10.9883 7.64271 10.3262C7.64271 8.9668 9.39583 8.48633 10.4901 9.48828L10.0089 10.1211C9.41302 9.44141 8.58229 9.75781 8.58229 10.2676C8.58229 10.5254 8.73698 10.6719 9.28698 10.8711C10.3297 11.2578 10.6391 11.6035 10.6391 12.3711C10.6391 14.0996 8.41615 14.5625 7.39635 13.0332L7.98646 12.4531C8.19844 12.8691 8.55365 13.0859 8.98906 13.0859ZM3.17396 13.8242H1.83333V9.01953H3.17396C4.66927 9.01953 5.70052 10.0156 5.70052 11.4277C5.70052 12.5117 4.94427 13.8242 3.17396 13.8242ZM7.04115 13.8242H6.12448V9.01953H7.04115V13.8242ZM31.1667 24.3711C31.1667 24.8516 30.7771 25.25 30.3073 25.25H7.33333C18.1958 23.1641 29.2589 17.0938 31.1667 15.875V24.3711ZM4.24531 10.2266C3.9474 9.93945 3.58073 9.83984 2.99063 9.83984H2.75V13.0156H2.99063C3.58073 13.0156 3.96458 12.8984 4.24531 12.6406C4.57188 12.3359 4.75521 11.8906 4.75521 11.4277C4.75521 10.9648 4.57188 10.5195 4.24531 10.2266Z" fill="white"/>
</svg>
