<svg width="18" height="18" viewBox="0 0 18 18" fill="none" xmlns="http://www.w3.org/2000/svg">
<path d="M16.0714 0.25H1.92857C1.41708 0.25 0.926543 0.447544 0.564865 0.799175C0.203188 1.15081 0 1.62772 0 2.125L0 15.875C0 16.3723 0.203188 16.8492 0.564865 17.2008C0.926543 17.5525 1.41708 17.75 1.92857 17.75H7.44308V11.8004H4.91183V9H7.44308V6.86562C7.44308 4.43789 8.92969 3.09687 11.2066 3.09687C12.2971 3.09687 13.4373 3.28594 13.4373 3.28594V5.66875H12.1809C10.943 5.66875 10.5569 6.41562 10.5569 7.18164V9H13.3204L12.8784 11.8004H10.5569V17.75H16.0714C16.5829 17.75 17.0735 17.5525 17.4351 17.2008C17.7968 16.8492 18 16.3723 18 15.875V2.125C18 1.62772 17.7968 1.15081 17.4351 0.799175C17.0735 0.447544 16.5829 0.25 16.0714 0.25Z" fill="white"/>
</svg>
