<svg width="33" height="28" viewBox="0 0 33 28" fill="none" xmlns="http://www.w3.org/2000/svg">
<path d="M27.6661 23.041C27.6661 23.4395 27.4026 23.7266 27.0245 23.7266C26.6349 23.7266 26.3828 23.4219 26.3828 23.041C26.3828 22.6602 26.6349 22.3555 27.0245 22.3555C27.4026 22.3555 27.6661 22.6602 27.6661 23.041ZM9.8599 22.3555C9.45313 22.3555 9.21823 22.6602 9.21823 23.041C9.21823 23.4219 9.45313 23.7266 9.8599 23.7266C10.2323 23.7266 10.4844 23.4395 10.4844 23.041C10.4786 22.6602 10.2323 22.3555 9.8599 22.3555ZM16.5917 22.3379C16.2823 22.3379 16.0932 22.543 16.0474 22.8477H17.1417C17.0901 22.5137 16.8896 22.3379 16.5917 22.3379ZM22.7677 22.3555C22.3781 22.3555 22.1432 22.6602 22.1432 23.041C22.1432 23.4219 22.3781 23.7266 22.7677 23.7266C23.1573 23.7266 23.4094 23.4395 23.4094 23.041C23.4094 22.6602 23.1573 22.3555 22.7677 22.3555ZM28.8349 23.8848C28.8349 23.9023 28.8521 23.9141 28.8521 23.9492C28.8521 23.9668 28.8349 23.9785 28.8349 24.0137C28.8177 24.0312 28.8177 24.043 28.8062 24.0605C28.7891 24.0781 28.7776 24.0898 28.7432 24.0898C28.726 24.1074 28.7146 24.1074 28.6802 24.1074C28.663 24.1074 28.6516 24.1074 28.6172 24.0898C28.6 24.0898 28.5885 24.0723 28.5714 24.0605C28.5542 24.043 28.5427 24.0312 28.5427 24.0137C28.5255 23.9844 28.5255 23.9668 28.5255 23.9492C28.5255 23.9199 28.5255 23.9023 28.5427 23.8848C28.5427 23.8555 28.5599 23.8379 28.5714 23.8203C28.5885 23.8027 28.6 23.8027 28.6172 23.791C28.6458 23.7734 28.663 23.7734 28.6802 23.7734C28.7089 23.7734 28.726 23.7734 28.7432 23.791C28.7719 23.8086 28.7891 23.8086 28.8062 23.8203C28.8234 23.832 28.8177 23.8555 28.8349 23.8848ZM28.7089 23.9668C28.7375 23.9668 28.7375 23.9492 28.7547 23.9492C28.7719 23.9316 28.7719 23.9199 28.7719 23.9023C28.7719 23.8848 28.7719 23.873 28.7547 23.8555C28.7375 23.8555 28.726 23.8379 28.6917 23.8379H28.6V24.043H28.6458V23.9609H28.663L28.726 24.043H28.7719L28.7089 23.9668ZM33 3.74609V24.3711C33 25.9238 31.7682 27.1836 30.25 27.1836H2.75C1.23177 27.1836 0 25.9238 0 24.3711V3.74609C0 2.19336 1.23177 0.933594 2.75 0.933594H30.25C31.7682 0.933594 33 2.19336 33 3.74609ZM3.66667 11.9258C3.66667 16.4082 7.22448 20.041 11.6016 20.041C13.1599 20.041 14.6896 19.5605 15.9844 18.6875C11.8078 15.2129 11.8365 8.65625 15.9844 5.18164C14.6896 4.30273 13.1599 3.82812 11.6016 3.82812C7.22448 3.82227 3.66667 7.46094 3.66667 11.9258ZM16.5 18.3008C20.5391 15.0781 20.5219 8.79688 16.5 5.55664C12.4781 8.79688 12.4609 15.084 16.5 18.3008ZM8.3474 22.7715C8.3474 22.2617 8.02083 21.9277 7.50521 21.9102C7.24167 21.9102 6.96094 21.9922 6.77187 22.291C6.63438 22.0508 6.39948 21.9102 6.07292 21.9102C5.85521 21.9102 5.6375 21.9922 5.46563 22.2266V21.9688H4.99583V24.1191H5.46563C5.46563 23.0117 5.3224 22.3496 5.98125 22.3496C6.56563 22.3496 6.45104 22.9473 6.45104 24.1191H6.90365C6.90365 23.0469 6.76042 22.3496 7.41927 22.3496C8.00365 22.3496 7.88906 22.9355 7.88906 24.1191H8.35885V22.7715H8.3474ZM10.9198 21.9688H10.4672V22.2266C10.3125 22.0332 10.0948 21.9102 9.79688 21.9102C9.20677 21.9102 8.75417 22.3906 8.75417 23.041C8.75417 23.6973 9.20677 24.1719 9.79688 24.1719C10.0948 24.1719 10.3125 24.0605 10.4672 23.8555V24.125H10.9198V21.9688ZM13.2401 23.4688C13.2401 22.5898 11.9281 22.9883 11.9281 22.5781C11.9281 22.2441 12.6099 22.2969 12.988 22.5137L13.1771 22.1328C12.6385 21.7754 11.4469 21.7812 11.4469 22.6133C11.4469 23.4512 12.7589 23.0996 12.7589 23.4922C12.7589 23.8613 11.9854 23.832 11.5729 23.5391L11.3724 23.9082C12.0141 24.3535 13.2401 24.2598 13.2401 23.4688ZM15.2682 24.0137L15.1422 23.6152C14.9245 23.7383 14.4432 23.873 14.4432 23.375V22.4023H15.1938V21.9688H14.4432V21.3125H13.9734V21.9688H13.538V22.3965H13.9734V23.375C13.9734 24.4062 14.9646 24.2188 15.2682 24.0137ZM16.0302 23.2285H17.6057C17.6057 22.2793 17.1818 21.9043 16.6089 21.9043C16.0016 21.9043 15.5661 22.3672 15.5661 23.0352C15.5661 24.2363 16.8609 24.4355 17.5026 23.8672L17.2849 23.5156C16.838 23.8906 16.162 23.8555 16.0302 23.2285ZM19.4161 21.9688C19.1526 21.8516 18.7516 21.8633 18.5453 22.2266V21.9688H18.0755V24.1191H18.5453V22.9062C18.5453 22.2266 19.0896 22.3145 19.2786 22.4141L19.4161 21.9688ZM20.0234 23.041C20.0234 22.373 20.688 22.1562 21.2094 22.5488L21.4271 22.168C20.7625 21.6348 19.5536 21.9277 19.5536 23.0469C19.5536 24.207 20.837 24.4414 21.4271 23.9258L21.2094 23.5449C20.6823 23.9258 20.0234 23.6973 20.0234 23.041ZM23.8448 21.9688H23.375V22.2266C22.8995 21.582 21.662 21.9453 21.662 23.041C21.662 24.166 22.9453 24.4883 23.375 23.8555V24.125H23.8448V21.9688ZM25.7755 21.9688C25.638 21.8984 25.1453 21.7988 24.9047 22.2266V21.9688H24.4521V24.1191H24.9047V22.9062C24.9047 22.2617 25.4203 22.3027 25.638 22.4141L25.7755 21.9688ZM28.0844 21.0957H27.6318V22.2266C27.162 21.5879 25.9188 21.9277 25.9188 23.041C25.9188 24.1777 27.2078 24.4824 27.6318 23.8555V24.125H28.0844V21.0957ZM28.5198 16.6953V16.9648H28.5656V16.6953H28.6745V16.6484H28.4109V16.6953H28.5198ZM28.8979 23.9492C28.8979 23.9199 28.8979 23.8848 28.8807 23.8555C28.8635 23.8379 28.8521 23.8086 28.8349 23.791C28.8177 23.7734 28.7891 23.7617 28.7719 23.7441C28.7432 23.7441 28.7089 23.7266 28.6802 23.7266C28.663 23.7266 28.6344 23.7441 28.6 23.7441C28.5714 23.7617 28.5542 23.7734 28.537 23.791C28.5083 23.8086 28.4911 23.8379 28.4911 23.8555C28.474 23.8848 28.474 23.9199 28.474 23.9492C28.474 23.9668 28.474 23.9961 28.4911 24.0312C28.4911 24.0488 28.5083 24.0781 28.537 24.0957C28.5542 24.1133 28.5656 24.125 28.6 24.1426C28.6286 24.1602 28.663 24.1602 28.6802 24.1602C28.7089 24.1602 28.7432 24.1602 28.7719 24.1426C28.7891 24.125 28.8177 24.1133 28.8349 24.0957C28.8521 24.0781 28.8635 24.0488 28.8807 24.0312C28.8979 23.9961 28.8979 23.9668 28.8979 23.9492ZM29.0813 16.6426H29.001L28.9094 16.8477L28.8177 16.6426H28.7375V16.959H28.7833V16.7188L28.875 16.9238H28.938L29.0182 16.7188V16.959H29.0813V16.6426ZM29.3333 11.9258C29.3333 7.46094 25.7755 3.82227 21.3984 3.82227C19.8401 3.82227 18.3104 4.30273 17.0156 5.17578C21.1464 8.65039 21.2094 15.2246 17.0156 18.6816C18.3104 19.5605 19.8516 20.0352 21.3984 20.0352C25.7755 20.041 29.3333 16.4082 29.3333 11.9258Z" fill="white"/>
</svg>
