<svg width="33" height="28" viewBox="0 0 33 28" fill="none" xmlns="http://www.w3.org/2000/svg">
<path d="M10.6734 14.1289C10.6734 14.8438 10.1177 15.3887 9.41302 15.3887C8.88594 15.3887 8.49635 15.084 8.49635 14.5098C8.49635 13.7949 9.04063 13.2207 9.73958 13.2207C10.2724 13.2207 10.6734 13.5547 10.6734 14.1289ZM4.61198 11.2871H4.34271C4.25677 11.2871 4.17083 11.3457 4.15938 11.4453L3.91302 13.0098L4.38281 12.9922C5.01302 12.9922 5.5 12.9043 5.61458 12.1602C5.74635 11.375 5.25938 11.2871 4.61198 11.2871ZM20.8828 11.2871H20.625C20.5219 11.2871 20.4531 11.3457 20.4417 11.4453L20.201 13.0098L20.6594 12.9922C21.4042 12.9922 21.9198 12.8164 21.9198 11.9375C21.9141 11.3164 21.3698 11.2871 20.8828 11.2871ZM33 3.6875V24.3125C33 25.8652 31.7682 27.125 30.25 27.125H2.75C1.23177 27.125 0 25.8652 0 24.3125V3.6875C0 2.13477 1.23177 0.875 2.75 0.875H30.25C31.7682 0.875 33 2.13477 33 3.6875ZM7.35052 11.6211C7.35052 10.3906 6.4224 9.98047 5.3625 9.98047H3.07083C2.9276 9.98047 2.78438 10.0977 2.77292 10.2559L1.83333 16.2383C1.81615 16.3555 1.90208 16.4727 2.01667 16.4727H3.10521C3.2599 16.4727 3.40313 16.3027 3.42031 16.1387L3.67812 14.5801C3.73542 14.1582 4.43437 14.3047 4.70937 14.3047C6.34792 14.3047 7.35052 13.3086 7.35052 11.6211ZM12.1745 12.1367H11.0859C10.8682 12.1367 10.8568 12.459 10.8453 12.6172C10.513 12.1191 10.0318 12.0312 9.4875 12.0312C8.08385 12.0312 7.0125 13.291 7.0125 14.6797C7.0125 15.8223 7.71146 16.5664 8.82865 16.5664C9.34427 16.5664 9.98594 16.2793 10.3469 15.8691C10.3182 15.957 10.2896 16.1445 10.2896 16.2324C10.2896 16.3672 10.3469 16.4668 10.4729 16.4668H11.4583C11.613 16.4668 11.7448 16.2969 11.7734 16.1328L12.3578 12.3652C12.375 12.2539 12.2891 12.1367 12.1745 12.1367ZM14.4948 17.873L18.1443 12.4473C18.1729 12.418 18.1729 12.3887 18.1729 12.3477C18.1729 12.248 18.087 12.1426 17.9896 12.1426H16.8896C16.7922 12.1426 16.6891 12.2012 16.6318 12.2891L15.1135 14.5742L14.4833 12.377C14.4375 12.248 14.3115 12.1426 14.1682 12.1426H13.0969C12.9995 12.1426 12.9135 12.248 12.9135 12.3477C12.9135 12.418 14.0307 15.6758 14.1281 15.9863C13.9734 16.209 12.9536 17.6621 12.9536 17.8379C12.9536 17.9434 13.0396 18.0254 13.137 18.0254H14.237C14.3401 18.0195 14.4375 17.9609 14.4948 17.873ZM23.6214 11.6211C23.6214 10.3906 22.6932 9.98047 21.6333 9.98047H19.3589C19.2042 9.98047 19.0609 10.0977 19.0438 10.2559L18.1156 16.2324C18.1042 16.3496 18.1901 16.4668 18.299 16.4668H19.4734C19.588 16.4668 19.674 16.3789 19.7026 16.2793L19.9604 14.5801C20.0177 14.1582 20.7167 14.3047 20.9917 14.3047C22.6187 14.3047 23.6214 13.3086 23.6214 11.6211ZM28.4453 12.1367H27.3568C27.1391 12.1367 27.1276 12.459 27.1104 12.6172C26.7953 12.1191 26.3083 12.0312 25.7526 12.0312C24.349 12.0312 23.2776 13.291 23.2776 14.6797C23.2776 15.8223 23.9766 16.5664 25.0938 16.5664C25.6266 16.5664 26.2682 16.2793 26.612 15.8691C26.5948 15.957 26.5547 16.1445 26.5547 16.2324C26.5547 16.3672 26.612 16.4668 26.738 16.4668H27.7292C27.8839 16.4668 28.0156 16.2969 28.0443 16.1328L28.6286 12.3652C28.6458 12.2539 28.5599 12.1367 28.4453 12.1367ZM31.1667 10.1855C31.1667 10.0684 31.0807 9.98047 30.9833 9.98047H29.9234C29.8375 9.98047 29.7516 10.0508 29.7401 10.1387L28.812 16.2324L28.7948 16.2617C28.7948 16.3672 28.8807 16.4668 28.9953 16.4668H29.9406C30.0839 16.4668 30.2271 16.2969 30.2385 16.1328L31.1667 10.2031V10.1855ZM26.0104 13.2207C25.3115 13.2207 24.7672 13.7891 24.7672 14.5098C24.7672 15.0781 25.1682 15.3887 25.6953 15.3887C26.3828 15.3887 26.9385 14.8496 26.9385 14.1289C26.9443 13.5547 26.5432 13.2207 26.0104 13.2207Z" fill="white"/>
</svg>
